<svg xmlns="http://www.w3.org/2000/svg" width="512" height="512" viewBox="0 0 512 512">
  <defs>
    <linearGradient id="bgGradient" x1="0%" y1="0%" x2="100%" y2="100%">
      <stop offset="0%" style="stop-color:#FF6B6B;stop-opacity:1" />
      <stop offset="50%" style="stop-color:#4ECDC4;stop-opacity:1" />
      <stop offset="100%" style="stop-color:#45B7D1;stop-opacity:1" />
    </linearGradient>
    <linearGradient id="iconGradient" x1="0%" y1="0%" x2="100%" y2="100%">
      <stop offset="0%" style="stop-color:#FFFFFF;stop-opacity:1" />
      <stop offset="100%" style="stop-color:#F8F9FA;stop-opacity:0.9" />
    </linearGradient>
    <filter id="shadow" x="-50%" y="-50%" width="200%" height="200%">
      <feDropShadow dx="0" dy="4" stdDeviation="8" flood-color="rgba(0,0,0,0.2)"/>
    </filter>
  </defs>
  
  <!-- Фон -->
  <rect width="512" height="512" rx="96" ry="96" fill="url(#bgGradient)"/>
  
  <!-- Тень для иконки -->
  <g filter="url(#shadow)">
    <!-- Центральная гантель -->
    <g fill="url(#iconGradient)" stroke="#FFFFFF" stroke-width="4" stroke-linejoin="round">
      <!-- Левый диск -->
      <circle cx="180" cy="256" r="45" />
      <!-- Правый диск -->
      <circle cx="332" cy="256" r="45" />
      <!-- Гриф -->
      <rect x="225" y="240" width="62" height="32" rx="16" ry="16" />
      <!-- Левая втулка -->
      <rect x="210" y="246" width="20" height="20" rx="10" ry="10" />
      <!-- Правая втулка -->
      <rect x="282" y="246" width="20" height="20" rx="10" ry="10" />
    </g>
    
    <!-- Пульс/сердцебиение линия -->
    <g fill="none" stroke="#FFFFFF" stroke-width="6" stroke-linecap="round" opacity="0.8">
      <path d="M 120 180 L 140 180 L 150 160 L 160 200 L 170 140 L 180 180 L 200 180" />
      <path d="M 312 180 L 332 180 L 342 160 L 352 200 L 362 140 L 372 180 L 392 180" />
    </g>
    
    <!-- Дополнительные элементы -->
    <!-- Иконка мышц (бицепс) -->
    <g fill="url(#iconGradient)" opacity="0.6">
      <!-- Левый бицепс -->
      <ellipse cx="140" cy="320" rx="25" ry="35" transform="rotate(-20 140 320)" />
      <!-- Правый бицепс -->
      <ellipse cx="372" cy="320" rx="25" ry="35" transform="rotate(20 372 320)" />
    </g>
    
    <!-- Звездочки/искры -->
    <g fill="#FFFFFF" opacity="0.7">
      <polygon points="100,120 105,130 115,130 107,137 110,147 100,140 90,147 93,137 85,130 95,130" />
      <polygon points="412,120 417,130 427,130 419,137 422,147 412,140 402,147 405,137 397,130 407,130" />
      <polygon points="100,380 105,390 115,390 107,397 110,407 100,400 90,407 93,397 85,390 95,390" />
      <polygon points="412,380 417,390 427,390 419,397 422,407 412,400 402,407 405,397 397,390 407,390" />
    </g>
  </g>
  
  <!-- Дополнительный блеск -->
  <ellipse cx="200" cy="200" rx="30" ry="60" fill="rgba(255,255,255,0.3)" transform="rotate(-45 200 200)" />
</svg>
